<?xml version="1.0"?>
<svg version="1.1" xmlns="http://www.w3.org/2000/svg" width="204px" height="70px" style=""><path fill="#" d="M51.23046875,51.71875q0.1171875-3.1640625,0.205078125-6.484375t0.166015625-6.552734375t0.1171875-6.279296875t0.0390625-5.68359375q0.0390625-0.52734375,0.91796875-0.83984375t2.099609375-0.458984375t2.578125-0.185546875t2.412109375-0.0390625q0.234375,0,0.9765625-0.01953125l0.37109375,0q0.56640625,0,1.19140625,0.0390625q0.8203125,0.05859375,1.435546875,0.25390625t0.615234375,0.56640625q0,0.2734375-0.21484375,0.439453125t-0.498046875,0.244140625t-0.5859375,0.09765625t-0.419921875,0.01953125q-1.8359375,0-3.6328125-0.05859375q-0.48828125-0.01953125-0.99609375-0.01953125q-1.328125,0-2.6953125,0.1171875q0.078125,0.234375,0.126953125,1.416015625t0.048828125,2.666015625t-0.01953125,2.900390625t0,2.177734375l0,5.078125q0.60546875-0.0390625,1.19140625-0.0390625l1.171875,0l0.78125-0.0390625q0.390625-0.01953125,0.8203125-0.01953125q0.44921875,0,0.91796875,0.01953125q0.9375,0.0390625,1.708984375,0.224609375t0.771484375,0.654296875q0,0.3515625-0.29296875,0.517578125t-0.654296875,0.244140625t-0.68359375,0.078125l-0.361328125,0q-1.11328125,0-2.314453125-0.078125t-2.236328125-0.078125q-0.1953125,0.078125-0.419921875,0.05859375t-0.400390625-0.01953125q0,2.9296875-0.05859375,5.830078125t-0.13671875,5.771484375q0,0.56640625-0.712890625,0.7421875t-1.357421875,0.17578125q-0.72265625,0-1.142578125-0.17578125t-0.595703125-0.576171875t-0.21484375-1.064453125q-0.01953125-0.37109375-0.0390625-0.8203125q0-0.37109375,0.01953125-0.80078125z M67.1615234375,47.71484375q0-1.328125,0.361328125-2.55859375t1.083984375-2.197265625t1.806640625-1.54296875t2.509765625-0.576171875q0.87890625,0,1.943359375,0.263671875t2.001953125,0.78125t1.5625,1.318359375t0.625,1.8359375q0,0.48828125-0.166015625,0.7421875t-0.673828125,0.25390625l-0.21484375-0.0390625q0.56640625,1.5234375,0.9765625,3.125t0.80078125,3.203125q0.15625,0.3125,0.234375,0.556640625t0.078125,0.478515625q0,0.3125-0.17578125,0.517578125t-0.458984375,0.302734375t-0.5859375,0.13671875t-0.537109375,0.0390625q-0.83984375,0-1.259765625-0.29296875t-0.60546875-0.80078125t-0.224609375-1.142578125t-0.15625-1.279296875q-0.234375,0.76171875-0.615234375,1.484375t-0.8984375,1.298828125t-1.220703125,0.91796875t-1.58203125,0.341796875q-1.2890625,0-2.16796875-0.7421875t-1.416015625-1.826171875t-0.78125-2.314453125t-0.244140625-2.28515625z M69.9349609375,47.44140625q0,0.72265625,0.09765625,1.5234375t0.322265625,1.58203125t0.576171875,1.474609375t0.87890625,1.220703125q0.95703125-1.03515625,1.416015625-2.51953125t0.8203125-2.861328125t0.8203125-2.36328125t1.416015625-0.986328125q0.60546875,0,1.015625,0.21484375q-0.1953125-0.48828125-0.64453125-0.947265625t-1.005859375-0.83984375t-1.15234375-0.625t-1.123046875-0.244140625q-0.15625,0-0.361328125,0.048828125t-0.322265625,0.009765625q-0.80078125,0.234375-1.318359375,0.810546875t-0.83984375,1.357421875t-0.458984375,1.6015625t-0.13671875,1.54296875z M84.088671875,42.03125q0-1.3671875,0.126953125-3.5546875t0.302734375-4.51171875t0.439453125-4.404296875t0.576171875-3.193359375q0.1171875-0.48828125,0.556640625-0.5859375t0.888671875-0.09765625q0.60546875,0,1.044921875,0.21484375t0.439453125,0.9375q0,3.5546875-0.439453125,7.119140625t-0.478515625,7.119140625q0.60546875-0.91796875,1.5625-1.376953125t2.03125-0.458984375q1.484375,0,2.55859375,0.60546875t1.73828125,1.5625t0.986328125,2.216796875t0.322265625,2.568359375q0,0.72265625-0.146484375,1.806640625t-0.439453125,2.28515625t-0.7421875,2.3828125t-1.064453125,2.119140625t-1.416015625,1.513671875t-1.7578125,0.576171875q-0.1953125,0-0.517578125-0.05859375t-0.64453125-0.17578125t-0.537109375-0.302734375t-0.21484375-0.458984375q0-0.3125,0.380859375-0.439453125t0.615234375-0.126953125q0.87890625-0.390625,1.5625-1.630859375t1.142578125-2.724609375t0.693359375-2.939453125t0.234375-2.373046875q0-0.52734375-0.15625-1.40625t-0.478515625-1.73828125t-0.87890625-1.484375t-1.318359375-0.625q-0.91796875,0-1.46484375,0.947265625t-0.859375,2.20703125t-0.419921875,2.59765625t-0.107421875,2.099609375q0,0.48828125,0.166015625,0.966796875t0.380859375,0.95703125t0.380859375,0.9765625t0.166015625,0.986328125q0,0.234375-0.205078125,0.390625t-0.478515625,0.25390625t-0.576171875,0.126953125t-0.458984375,0.029296875q-1.11328125,0-1.54296875-0.52734375t-0.7421875-1.484375q-0.68359375-2.16796875-0.947265625-4.404296875t-0.263671875-4.482421875z M100.7814453125,38.359375q0-1.2890625,0.107421875-2.822265625t0.380859375-3.076171875t0.8203125-2.978515625t1.40625-2.55859375t2.099609375-1.787109375t2.958984375-0.6640625q1.3671875,0,2.51953125,0.52734375t2.01171875,1.42578125t1.337890625,2.099609375t0.478515625,2.509765625q0,0.3515625-0.478515625,0.439453125t-0.673828125,0.087890625q-0.3515625,0-0.673828125-0.05859375t-0.478515625-0.46875q-0.2734375-0.76171875-0.576171875-1.6015625t-0.7421875-1.533203125t-1.083984375-1.142578125q-0.5859375-0.390625-1.484375-0.390625l-0.15625,0q-1.640625,0.0390625-2.44140625,1.171875t-1.103515625,2.75390625t-0.302734375,3.4375l0,3.22265625q0,0.80078125,0.05859375,2.32421875t0.283203125,3.3203125t0.5859375,3.662109375t0.9765625,3.3984375t1.474609375,2.5t2.0703125,0.966796875q1.07421875,0,1.875-0.7421875t1.376953125-1.904296875t0.9765625-2.59765625t0.6640625-2.880859375t0.400390625-2.685546875t0.21484375-2.041015625q-0.21484375-0.01953125-0.41015625-0.01953125q-0.91796875,0-1.796875,0.29296875q-1.11328125,0.33203125-2.2265625,0.33203125q-0.15625,0-0.419921875-0.01953125t-0.498046875-0.09765625t-0.419921875-0.224609375t-0.185546875-0.380859375q0-0.44921875,0.986328125-0.76171875t2.24609375-0.537109375t2.431640625-0.322265625t1.54296875-0.09765625q0.1953125,0,0.556640625,0.0390625t0.72265625,0.13671875t0.615234375,0.283203125t0.25390625,0.458984375q0,0.234375-0.17578125,0.419921875t-0.439453125,0.283203125t-0.537109375,0.13671875t-0.4296875,0.0390625q0.01953125,0.44921875,0.01953125,0.91796875q0,1.0546875-0.05859375,2.24609375q-0.09765625,1.71875-0.390625,3.4375t-0.8984375,3.33984375t-1.54296875,2.861328125t-2.314453125,2.001953125t-3.271484375,0.76171875q-2.0703125,0-3.49609375-0.87890625t-2.32421875-2.34375t-1.396484375-3.3203125t-0.712890625-3.798828125t-0.263671875-3.779296875t-0.048828125-3.3203125z M123.06015625,42.24609375q0-0.80078125,0.283203125-1.34765625t1.201171875-0.546875q0.3515625,0,0.87890625,0.107421875t0.60546875,0.537109375q0.1953125,1.15234375,0.21484375,2.5t0.13671875,2.5390625q0.44921875-0.87890625,1.15234375-1.89453125t1.6015625-1.875t1.953125-1.42578125t2.1484375-0.56640625q0.078125,0,0.29296875,0.05859375t0.400390625,0.166015625t0.224609375,0.244140625t-0.21484375,0.25390625q-0.078125,0.234375-0.33203125,0.283203125t-0.44921875,0.048828125q-0.1171875,0-0.37109375-0.09765625q-1.4453125,0.76171875-2.4609375,2.0703125t-1.66015625,2.900390625t-0.9375,3.359375t-0.29296875,3.447265625q0,0.83984375-0.380859375,1.015625t-1.220703125,0.17578125q-0.44921875,0-0.947265625-0.09765625t-0.693359375-0.625q-0.3515625-1.11328125-0.576171875-2.55859375t-0.341796875-2.978515625t-0.166015625-3.017578125t-0.048828125-2.67578125z M136.9404296875,47.71484375q0-1.328125,0.361328125-2.55859375t1.083984375-2.197265625t1.806640625-1.54296875t2.509765625-0.576171875q0.87890625,0,1.943359375,0.263671875t2.001953125,0.78125t1.5625,1.318359375t0.625,1.8359375q0,0.48828125-0.166015625,0.7421875t-0.673828125,0.25390625l-0.21484375-0.0390625q0.56640625,1.5234375,0.9765625,3.125t0.80078125,3.203125q0.15625,0.3125,0.234375,0.556640625t0.078125,0.478515625q0,0.3125-0.17578125,0.517578125t-0.458984375,0.302734375t-0.5859375,0.13671875t-0.537109375,0.0390625q-0.83984375,0-1.259765625-0.29296875t-0.60546875-0.80078125t-0.224609375-1.142578125t-0.15625-1.279296875q-0.234375,0.76171875-0.615234375,1.484375t-0.8984375,1.298828125t-1.220703125,0.91796875t-1.58203125,0.341796875q-1.2890625,0-2.16796875-0.7421875t-1.416015625-1.826171875t-0.78125-2.314453125t-0.244140625-2.28515625z M139.7138671875,47.44140625q0,0.72265625,0.09765625,1.5234375t0.322265625,1.58203125t0.576171875,1.474609375t0.87890625,1.220703125q0.95703125-1.03515625,1.416015625-2.51953125t0.8203125-2.861328125t0.8203125-2.36328125t1.416015625-0.986328125q0.60546875,0,1.015625,0.21484375q-0.1953125-0.48828125-0.64453125-0.947265625t-1.005859375-0.83984375t-1.15234375-0.625t-1.123046875-0.244140625q-0.15625,0-0.361328125,0.048828125t-0.322265625,0.009765625q-0.80078125,0.234375-1.318359375,0.810546875t-0.83984375,1.357421875t-0.458984375,1.6015625t-0.13671875,1.54296875z M153.91640625,42.822265625q-0.048828125-0.654296875,0.078125-1.201171875t0.5078125-0.888671875t1.220703125-0.341796875q0.1953125,0,0.478515625,0.048828125t0.556640625,0.126953125t0.458984375,0.234375t0.185546875,0.4296875l0,2.20703125q0.76171875-0.87890625,1.66015625-1.259765625t2.05078125-0.380859375q0.87890625,0,1.73828125,0.400390625t1.62109375,1.064453125t1.318359375,1.46484375t0.810546875,1.6015625q0.15625-0.72265625,0.3515625-1.767578125t0.576171875-2.001953125t1.005859375-1.640625t1.66015625-0.68359375q1.11328125,0,1.875,0.80078125t1.240234375,2.080078125t0.72265625,2.861328125t0.361328125,3.125t0.1171875,2.880859375l0,2.099609375q0,0.234375-0.17578125,0.380859375t-0.439453125,0.224609375t-0.546875,0.09765625t-0.439453125,0.01953125q-0.60546875,0-1.103515625-0.185546875t-0.498046875-0.947265625l0-1.7578125t-0.0390625-2.275390625t-0.13671875-2.44140625t-0.25390625-2.216796875t-0.400390625-1.6015625t-0.595703125-0.625q-0.48828125,0-0.703125,0.546875t-0.361328125,1.38671875t-0.224609375,1.77734375t-0.21484375,1.77734375t-0.439453125,1.376953125t-0.830078125,0.537109375q-0.56640625,0-0.99609375-0.537109375t-0.849609375-1.337890625t-0.83984375-1.71875t-0.927734375-1.71875q-0.5078125-0.8203125-1.09375-1.328125q-0.52734375-0.48828125-1.19140625-0.46875l-0.09765625,0q-0.87890625,0.0390625-1.376953125,0.634765625t-0.76171875,1.455078125t-0.322265625,1.845703125t-0.05859375,1.728515625q0,0.703125,0.1171875,1.640625q0.078125,0.625,0.078125,1.19140625q0,0.29296875-0.01953125,0.56640625q-0.05859375,0.8203125-0.439453125,1.376953125t-1.416015625,0.556640625q-0.390625,0-0.9765625-0.078125t-0.78125-0.52734375q-0.44921875-0.80078125-0.68359375-2.021484375t-0.3515625-2.51953125t-0.13671875-2.578125t-0.01953125-2.197265625q0-0.64453125-0.048828125-1.298828125z"/><path fill="#" d=""/></svg>
