<?xml version="1.0"?>
<svg version="1.1" xmlns="http://www.w3.org/2000/svg" width="415px" height="120px" style=""><path fill="#" d="M53.076171875,101.796875q0.29296875-7.91015625,0.5126953125-16.2109375t0.4150390625-16.3818359375t0.29296875-15.6982421875t0.09765625-14.208984375q0.09765625-1.318359375,2.294921875-2.099609375t5.2490234375-1.1474609375t6.4453125-0.4638671875t6.0302734375-0.09765625q0.5859375,0,2.44140625-0.048828125l0.927734375,0q1.416015625,0,2.978515625,0.09765625q2.05078125,0.146484375,3.5888671875,0.634765625t1.5380859375,1.416015625q0,0.68359375-0.537109375,1.0986328125t-1.2451171875,0.6103515625t-1.46484375,0.244140625t-1.0498046875,0.048828125q-4.58984375,0-9.08203125-0.146484375q-1.220703125-0.048828125-2.490234375-0.048828125q-3.3203125,0-6.73828125,0.29296875q0.1953125,0.5859375,0.3173828125,3.5400390625t0.1220703125,6.6650390625t-0.048828125,7.2509765625t0,5.4443359375l0,12.6953125q1.513671875-0.09765625,2.978515625-0.09765625l2.9296875,0l1.953125-0.09765625q0.9765625-0.048828125,2.05078125-0.048828125q1.123046875,0,2.294921875,0.048828125q2.34375,0.09765625,4.2724609375,0.5615234375t1.9287109375,1.6357421875q0,0.87890625-0.732421875,1.2939453125t-1.6357421875,0.6103515625t-1.708984375,0.1953125l-0.9033203125,0q-2.783203125,0-5.7861328125-0.1953125t-5.5908203125-0.1953125q-0.48828125,0.1953125-1.0498046875,0.146484375t-1.0009765625-0.048828125q0,7.32421875-0.146484375,14.5751953125t-0.341796875,14.4287109375q0,1.416015625-1.7822265625,1.85546875t-3.3935546875,0.439453125q-1.806640625,0-2.8564453125-0.439453125t-1.4892578125-1.4404296875t-0.537109375-2.6611328125q-0.048828125-0.927734375-0.09765625-2.05078125q0-0.927734375,0.048828125-2.001953125z M92.90380859375,91.787109375q0-3.3203125,0.9033203125-6.396484375t2.7099609375-5.4931640625t4.5166015625-3.857421875t6.2744140625-1.4404296875q2.197265625,0,4.8583984375,0.6591796875t5.0048828125,1.953125t3.90625,3.2958984375t1.5625,4.58984375q0,1.220703125-0.4150390625,1.85546875t-1.6845703125,0.634765625l-0.537109375-0.09765625q1.416015625,3.80859375,2.44140625,7.8125t2.001953125,8.0078125q0.390625,0.78125,0.5859375,1.3916015625t0.1953125,1.1962890625q0,0.78125-0.439453125,1.2939453125t-1.1474609375,0.7568359375t-1.46484375,0.341796875t-1.3427734375,0.09765625q-2.099609375,0-3.1494140625-0.732421875t-1.513671875-2.001953125t-0.5615234375-2.8564453125t-0.390625-3.1982421875q-0.5859375,1.904296875-1.5380859375,3.7109375t-2.24609375,3.2470703125t-3.0517578125,2.294921875t-3.955078125,0.8544921875q-3.22265625,0-5.419921875-1.85546875t-3.5400390625-4.5654296875t-1.953125-5.7861328125t-0.6103515625-5.712890625z M99.83740234375,91.103515625q0,1.806640625,0.244140625,3.80859375t0.8056640625,3.955078125t1.4404296875,3.6865234375t2.197265625,3.0517578125q2.392578125-2.587890625,3.5400390625-6.298828125t2.05078125-7.1533203125t2.05078125-5.908203125t3.5400390625-2.4658203125q1.513671875,0,2.5390625,0.537109375q-0.48828125-1.220703125-1.611328125-2.3681640625t-2.5146484375-2.099609375t-2.880859375-1.5625t-2.8076171875-0.6103515625q-0.390625,0-0.9033203125,0.1220703125t-0.8056640625,0.0244140625q-2.001953125,0.5859375-3.2958984375,2.0263671875t-2.099609375,3.3935546875t-1.1474609375,4.00390625t-0.341796875,3.857421875z M135.2216796875,77.578125q0-3.41796875,0.3173828125-8.88671875t0.7568359375-11.279296875t1.0986328125-11.0107421875t1.4404296875-7.9833984375q0.29296875-1.220703125,1.3916015625-1.46484375t2.2216796875-0.244140625q1.513671875,0,2.6123046875,0.537109375t1.0986328125,2.34375q0,8.88671875-1.0986328125,17.7978515625t-1.1962890625,17.7978515625q1.513671875-2.294921875,3.90625-3.4423828125t5.078125-1.1474609375q3.7109375,0,6.396484375,1.513671875t4.345703125,3.90625t2.4658203125,5.5419921875t0.8056640625,6.4208984375q0,1.806640625-0.3662109375,4.5166015625t-1.0986328125,5.712890625t-1.85546875,5.95703125t-2.6611328125,5.2978515625t-3.5400390625,3.7841796875t-4.39453125,1.4404296875q-0.48828125,0-1.2939453125-0.146484375t-1.611328125-0.439453125t-1.3427734375-0.7568359375t-0.537109375-1.1474609375q0-0.78125,0.9521484375-1.0986328125t1.5380859375-0.3173828125q2.197265625-0.9765625,3.90625-4.0771484375t2.8564453125-6.8115234375t1.7333984375-7.3486328125t0.5859375-5.9326171875q0-1.318359375-0.390625-3.515625t-1.1962890625-4.345703125t-2.197265625-3.7109375t-3.2958984375-1.5625q-2.294921875,0-3.662109375,2.3681640625t-2.1484375,5.517578125t-1.0498046875,6.494140625t-0.2685546875,5.2490234375q0,1.220703125,0.4150390625,2.4169921875t0.9521484375,2.392578125t0.9521484375,2.44140625t0.4150390625,2.4658203125q0,0.5859375-0.5126953125,0.9765625t-1.1962890625,0.634765625t-1.4404296875,0.3173828125t-1.1474609375,0.0732421875q-2.783203125,0-3.857421875-1.318359375t-1.85546875-3.7109375q-1.708984375-5.419921875-2.3681640625-11.0107421875t-0.6591796875-11.2060546875z M176.95361328125,68.3984375q0-3.22265625,0.2685546875-7.0556640625t0.9521484375-7.6904296875t2.05078125-7.4462890625t3.515625-6.396484375t5.2490234375-4.4677734375t7.3974609375-1.66015625q3.41796875,0,6.298828125,1.318359375t5.029296875,3.564453125t3.3447265625,5.2490234375t1.1962890625,6.2744140625q0,0.87890625-1.1962890625,1.0986328125t-1.6845703125,0.2197265625q-0.87890625,0-1.6845703125-0.146484375t-1.1962890625-1.171875q-0.68359375-1.904296875-1.4404296875-4.00390625t-1.85546875-3.8330078125t-2.7099609375-2.8564453125q-1.46484375-0.9765625-3.7109375-0.9765625l-0.390625,0q-4.1015625,0.09765625-6.103515625,2.9296875t-2.7587890625,6.884765625t-0.7568359375,8.59375l0,8.056640625q0,2.001953125,0.146484375,5.810546875t0.7080078125,8.30078125t1.46484375,9.1552734375t2.44140625,8.49609375t3.6865234375,6.25t5.17578125,2.4169921875q2.685546875,0,4.6875-1.85546875t3.4423828125-4.7607421875t2.44140625-6.494140625t1.66015625-7.2021484375t1.0009765625-6.7138671875t0.537109375-5.1025390625q-0.537109375-0.048828125-1.025390625-0.048828125q-2.294921875,0-4.4921875,0.732421875q-2.783203125,0.830078125-5.56640625,0.830078125q-0.390625,0-1.0498046875-0.048828125t-1.2451171875-0.244140625t-1.0498046875-0.5615234375t-0.4638671875-0.9521484375q0-1.123046875,2.4658203125-1.904296875t5.615234375-1.3427734375t6.0791015625-0.8056640625t3.857421875-0.244140625q0.48828125,0,1.3916015625,0.09765625t1.806640625,0.341796875t1.5380859375,0.7080078125t0.634765625,1.1474609375q0,0.5859375-0.439453125,1.0498046875t-1.0986328125,0.7080078125t-1.3427734375,0.341796875t-1.07421875,0.09765625q0.048828125,1.123046875,0.048828125,2.294921875q0,2.63671875-0.146484375,5.615234375q-0.244140625,4.296875-0.9765625,8.59375t-2.24609375,8.349609375t-3.857421875,7.1533203125t-5.7861328125,5.0048828125t-8.1787109375,1.904296875q-5.17578125,0-8.740234375-2.197265625t-5.810546875-5.859375t-3.4912109375-8.30078125t-1.7822265625-9.4970703125t-0.6591796875-9.4482421875t-0.1220703125-8.30078125z M232.650390625,78.115234375q0-2.001953125,0.7080078125-3.369140625t3.0029296875-1.3671875q0.87890625,0,2.197265625,0.2685546875t1.513671875,1.3427734375q0.48828125,2.880859375,0.537109375,6.25t0.341796875,6.34765625q1.123046875-2.197265625,2.880859375-4.736328125t4.00390625-4.6875t4.8828125-3.564453125t5.37109375-1.416015625q0.1953125,0,0.732421875,0.146484375t1.0009765625,0.4150390625t0.5615234375,0.6103515625t-0.537109375,0.634765625q-0.1953125,0.5859375-0.830078125,0.7080078125t-1.123046875,0.1220703125q-0.29296875,0-0.927734375-0.244140625q-3.61328125,1.904296875-6.15234375,5.17578125t-4.150390625,7.2509765625t-2.34375,8.3984375t-0.732421875,8.6181640625q0,2.099609375-0.9521484375,2.5390625t-3.0517578125,0.439453125q-1.123046875,0-2.3681640625-0.244140625t-1.7333984375-1.5625q-0.87890625-2.783203125-1.4404296875-6.396484375t-0.8544921875-7.4462890625t-0.4150390625-7.5439453125t-0.1220703125-6.689453125z M267.35107421875,91.787109375q0-3.3203125,0.9033203125-6.396484375t2.7099609375-5.4931640625t4.5166015625-3.857421875t6.2744140625-1.4404296875q2.197265625,0,4.8583984375,0.6591796875t5.0048828125,1.953125t3.90625,3.2958984375t1.5625,4.58984375q0,1.220703125-0.4150390625,1.85546875t-1.6845703125,0.634765625l-0.537109375-0.09765625q1.416015625,3.80859375,2.44140625,7.8125t2.001953125,8.0078125q0.390625,0.78125,0.5859375,1.3916015625t0.1953125,1.1962890625q0,0.78125-0.439453125,1.2939453125t-1.1474609375,0.7568359375t-1.46484375,0.341796875t-1.3427734375,0.09765625q-2.099609375,0-3.1494140625-0.732421875t-1.513671875-2.001953125t-0.5615234375-2.8564453125t-0.390625-3.1982421875q-0.5859375,1.904296875-1.5380859375,3.7109375t-2.24609375,3.2470703125t-3.0517578125,2.294921875t-3.955078125,0.8544921875q-3.22265625,0-5.419921875-1.85546875t-3.5400390625-4.5654296875t-1.953125-5.7861328125t-0.6103515625-5.712890625z M274.28466796875,91.103515625q0,1.806640625,0.244140625,3.80859375t0.8056640625,3.955078125t1.4404296875,3.6865234375t2.197265625,3.0517578125q2.392578125-2.587890625,3.5400390625-6.298828125t2.05078125-7.1533203125t2.05078125-5.908203125t3.5400390625-2.4658203125q1.513671875,0,2.5390625,0.537109375q-0.48828125-1.220703125-1.611328125-2.3681640625t-2.5146484375-2.099609375t-2.880859375-1.5625t-2.8076171875-0.6103515625q-0.390625,0-0.9033203125,0.1220703125t-0.8056640625,0.0244140625q-2.001953125,0.5859375-3.2958984375,2.0263671875t-2.099609375,3.3935546875t-1.1474609375,4.00390625t-0.341796875,3.857421875z M309.791015625,79.5556640625q-0.1220703125-1.6357421875,0.1953125-3.0029296875t1.26953125-2.2216796875t3.0517578125-0.8544921875q0.48828125,0,1.1962890625,0.1220703125t1.3916015625,0.3173828125t1.1474609375,0.5859375t0.4638671875,1.07421875l0,5.517578125q1.904296875-2.197265625,4.150390625-3.1494140625t5.126953125-0.9521484375q2.197265625,0,4.345703125,1.0009765625t4.052734375,2.6611328125t3.2958984375,3.662109375t2.0263671875,4.00390625q0.390625-1.806640625,0.87890625-4.4189453125t1.4404296875-5.0048828125t2.5146484375-4.1015625t4.150390625-1.708984375q2.783203125,0,4.6875,2.001953125t3.1005859375,5.2001953125t1.806640625,7.1533203125t0.9033203125,7.8125t0.29296875,7.2021484375l0,5.2490234375q0,0.5859375-0.439453125,0.9521484375t-1.0986328125,0.5615234375t-1.3671875,0.244140625t-1.0986328125,0.048828125q-1.513671875,0-2.7587890625-0.4638671875t-1.2451171875-2.3681640625l0-4.39453125t-0.09765625-5.6884765625t-0.341796875-6.103515625t-0.634765625-5.5419921875t-1.0009765625-4.00390625t-1.4892578125-1.5625q-1.220703125,0-1.7578125,1.3671875t-0.9033203125,3.466796875t-0.5615234375,4.443359375t-0.537109375,4.443359375t-1.0986328125,3.4423828125t-2.0751953125,1.3427734375q-1.416015625,0-2.490234375-1.3427734375t-2.1240234375-3.3447265625t-2.099609375-4.296875t-2.3193359375-4.296875q-1.26953125-2.05078125-2.734375-3.3203125q-1.318359375-1.220703125-2.978515625-1.171875l-0.244140625,0q-2.197265625,0.09765625-3.4423828125,1.5869140625t-1.904296875,3.6376953125t-0.8056640625,4.6142578125t-0.146484375,4.3212890625q0,1.7578125,0.29296875,4.1015625q0.1953125,1.5625,0.1953125,2.978515625q0,0.732421875-0.048828125,1.416015625q-0.146484375,2.05078125-1.0986328125,3.4423828125t-3.5400390625,1.3916015625q-0.9765625,0-2.44140625-0.1953125t-1.953125-1.318359375q-1.123046875-2.001953125-1.708984375-5.0537109375t-0.87890625-6.298828125t-0.341796875-6.4453125t-0.048828125-5.4931640625q0-1.611328125-0.1220703125-3.2470703125z"/><path fill="#" d=""/></svg>
